<svg width="21" height="22" viewBox="0 0 21 22" fill="none" xmlns="http://www.w3.org/2000/svg">
<g id="Layer_1" clip-path="url(#clip0_132_694)">
<path id="Vector" d="M11.8196 16.5028C12.2094 16.3364 12.3268 16.0358 12.3252 15.623C12.3143 12.8949 12.3195 10.1672 12.3195 7.43902V7.16976C12.4098 7.16976 12.4839 7.16976 12.5575 7.16976C13.3282 7.16976 14.0984 7.1661 14.8692 7.17132C15.1875 7.17341 15.4484 7.07739 15.5872 6.77629C15.7271 6.4731 15.6212 6.21531 15.4124 5.97735C13.9028 4.25476 12.3962 2.52956 10.887 0.806451C10.5291 0.397852 10.11 0.397852 9.75257 0.806451C8.24341 2.52904 6.73686 4.25476 5.22718 5.97735C5.01897 6.21531 4.91199 6.4731 5.05236 6.77577C5.19117 7.07635 5.45209 7.17289 5.77041 7.1708C6.61005 7.16558 7.44917 7.16923 8.32012 7.16923V7.41763C8.32012 10.1526 8.32534 12.8875 8.31438 15.6225C8.31281 16.0353 8.43023 16.3359 8.82004 16.5023H11.8201L11.8196 16.5028Z" fill="#A40F37"/>
<path id="Vector_2" d="M20.3193 15.1814V16.82C20.3193 18.0004 20.3198 19.1808 20.3193 20.3612C20.3188 21.289 19.7729 21.8328 18.8409 21.8328C13.1612 21.8328 7.48206 21.8328 1.80237 21.8328C0.861493 21.8328 0.319824 21.2885 0.319824 20.344C0.319824 18.6986 0.319824 17.0527 0.319824 15.4074V15.183H2.98068V19.1547H17.648V15.1814H20.3188H20.3193Z" fill="#A40F37"/>
</g>
<defs>
<clipPath id="clip0_132_694">
<rect width="20" height="21.3328" fill="white" transform="translate(0.319824 0.5)"/>
</clipPath>
</defs>
</svg>
